<?xml version="1.0" standalone="no"?>
<!DOCTYPE svg PUBLIC "-//W3C//DTD SVG 20010904//EN"
 "http://www.w3.org/TR/2001/REC-SVG-20010904/DTD/svg10.dtd">
<svg version="1.0" xmlns="http://www.w3.org/2000/svg"
 width="260.000000pt" height="260.000000pt" viewBox="0 0 260.000000 260.000000"
 preserveAspectRatio="xMidYMid meet">
<metadata>
Created by potrace 1.11, written by Peter Selinger 2001-2013
</metadata>
<g transform="translate(0.000000,260.000000) scale(0.100000,-0.100000)"
fill="#000000" stroke="none">
<path d="M1195 2481 c-3 -6 -17 -9 -31 -7 -13 3 -24 2 -24 -2 0 -4 -12 -8 -27
-9 -39 -3 -77 -10 -105 -19 -21 -7 -44 -12 -75 -16 -7 -1 -15 -8 -18 -16 -4
-11 -8 -12 -20 -2 -10 9 -15 9 -15 1 0 -6 -7 -11 -15 -11 -8 0 -15 -4 -15 -10
0 -5 -3 -9 -7 -8 -16 3 -63 -14 -74 -28 -6 -8 -15 -11 -20 -8 -5 3 -9 0 -9 -6
0 -6 -4 -9 -9 -6 -4 3 -19 -3 -31 -14 -12 -11 -27 -17 -31 -14 -5 3 -9 0 -9
-6 0 -6 -8 -14 -19 -18 -20 -8 -81 -55 -118 -90 -12 -13 -23 -20 -23 -17 0 3
-6 0 -14 -7 -8 -7 -12 -16 -9 -20 2 -5 -1 -8 -6 -8 -6 0 -20 -9 -31 -20 -11
-11 -18 -20 -16 -20 2 0 -12 -16 -30 -36 -19 -20 -32 -39 -29 -44 3 -4 -5 -10
-16 -13 -12 -3 -18 -10 -14 -16 3 -6 1 -11 -6 -11 -7 0 -10 -3 -6 -6 3 -3 -3
-15 -13 -27 -11 -11 -17 -24 -14 -29 3 -5 0 -7 -7 -6 -7 2 -14 -1 -14 -7 -2
-24 -17 -55 -26 -55 -6 0 -7 -4 -4 -10 3 -5 1 -10 -4 -10 -6 0 -10 -3 -9 -7 1
-5 -5 -21 -12 -38 -7 -16 -14 -33 -14 -37 -1 -3 -4 -10 -8 -14 -5 -4 -8 -16
-8 -26 0 -10 -4 -18 -8 -18 -4 0 -9 -12 -10 -27 -1 -15 -7 -32 -12 -37 -6 -6
-10 -21 -10 -34 0 -13 -5 -33 -11 -44 -8 -16 -8 -19 1 -13 9 6 9 3 2 -11 -6
-11 -10 -22 -11 -26 -1 -5 -1 -9 -2 -10 0 -2 -2 -22 -4 -46 -2 -23 -7 -47 -10
-52 -3 -6 0 -10 7 -10 9 0 9 -3 2 -8 -13 -9 -13 -104 1 -114 6 -5 6 -8 -2 -8
-11 0 -13 -45 -2 -65 3 -6 7 -28 8 -50 1 -22 5 -42 9 -45 4 -3 8 -21 10 -40 4
-56 5 -60 11 -60 4 0 8 -12 9 -26 1 -15 7 -33 13 -40 6 -7 8 -17 5 -23 -3 -5
-2 -11 4 -13 6 -2 12 -12 14 -23 6 -31 67 -148 85 -163 13 -11 13 -12 1 -6
-13 7 -13 5 -1 -9 7 -9 10 -17 5 -18 -5 0 1 -4 13 -9 13 -5 23 -16 23 -25 0
-13 25 -47 68 -91 6 -7 12 -15 12 -18 0 -14 104 -105 114 -99 6 3 8 3 4 -1 -6
-8 26 -46 39 -46 3 0 13 -6 22 -14 9 -8 27 -25 41 -38 15 -13 34 -22 43 -20 9
2 17 -1 17 -7 0 -5 30 -24 68 -42 37 -18 70 -37 74 -43 4 -6 8 -8 8 -3 0 4 13
1 29 -7 16 -9 31 -12 35 -9 3 4 6 1 6 -6 0 -7 5 -9 10 -6 6 4 17 2 24 -4 7 -6
27 -11 44 -13 18 -1 32 -5 32 -8 0 -3 19 -6 41 -8 23 -1 51 -8 62 -14 16 -8
22 -8 25 1 3 8 8 9 17 1 13 -10 225 -20 225 -10 0 3 18 5 41 5 22 0 42 2 45 6
2 4 20 7 39 7 20 0 41 4 48 10 6 5 20 8 30 7 9 -2 17 0 17 4 0 4 6 8 13 9 38
4 66 11 83 20 10 6 46 22 79 36 33 14 59 31 57 37 -1 6 2 8 8 4 11 -7 110 45
110 58 0 4 6 7 13 7 8 0 22 9 32 20 10 11 25 20 33 20 9 0 13 3 10 6 -6 6 27
44 37 44 11 0 105 97 105 108 0 6 9 13 19 17 13 4 18 12 14 22 -4 11 -2 14 5
9 7 -4 12 -3 12 3 0 5 11 22 25 37 14 15 23 34 20 41 -2 8 -1 11 5 8 7 -4 101
170 106 198 1 4 3 10 4 15 1 4 2 10 1 15 0 4 4 7 11 7 6 0 9 3 6 6 -3 3 2 26
11 52 10 26 17 60 17 74 -1 15 3 24 8 21 5 -4 7 1 3 9 -3 9 -3 19 1 23 4 4 8
21 8 38 2 28 5 49 14 92 1 6 1 13 0 18 -7 24 -3 117 5 117 7 0 7 3 0 8 -5 4
-11 18 -12 32 -1 14 -4 43 -7 65 -3 22 -8 55 -11 73 -2 18 -7 37 -10 42 -4 6
-9 23 -11 38 -7 36 -26 95 -36 106 -4 6 -8 18 -8 28 0 10 -5 18 -12 18 -6 0
-8 3 -5 7 4 3 -2 20 -13 38 -11 18 -17 35 -13 38 3 4 1 7 -5 7 -7 0 -12 7 -12
15 0 8 -5 15 -11 15 -5 0 -7 5 -4 10 3 6 1 10 -4 10 -6 0 -11 6 -11 13 0 7 -9
23 -19 34 -11 12 -17 23 -14 26 3 3 -4 12 -16 19 -12 7 -21 17 -21 23 0 6 -9
17 -20 25 -11 8 -20 18 -20 22 0 11 -107 118 -117 118 -5 0 -14 9 -21 21 -7
12 -16 19 -19 16 -3 -3 -15 4 -27 16 -24 25 -45 40 -128 86 -32 17 -58 29 -58
26 0 -4 -7 1 -16 9 -8 9 -27 19 -42 23 -15 3 -29 9 -32 14 -3 4 -16 9 -30 10
-14 2 -27 7 -30 11 -5 6 -41 14 -107 25 -18 3 -33 8 -33 12 0 4 -9 7 -20 8
-13 1 -18 -3 -14 -10 3 -7 -1 -5 -8 4 -9 12 -20 14 -35 8 -14 -5 -25 -4 -29 2
-3 6 -12 8 -20 5 -7 -3 -16 -1 -20 5 -4 6 -11 6 -20 -2 -11 -9 -14 -9 -14 0 0
8 -5 9 -19 1 -13 -7 -22 -7 -26 0 -4 7 -12 7 -25 0 -13 -7 -21 -7 -25 0 -5 8
-11 8 -19 1 -9 -7 -16 -7 -23 0 -8 8 -13 8 -18 0z m-191 -620 c-4 -5 57 -33
65 -31 2 1 7 -2 10 -7 8 -11 128 -67 137 -64 4 2 11 -4 16 -13 5 -9 13 -14 19
-11 5 4 16 -1 25 -9 9 -9 20 -14 25 -11 5 4 9 1 9 -5 0 -7 6 -10 14 -7 8 3 17
-1 20 -10 4 -8 13 -13 21 -9 8 3 15 2 15 -2 0 -6 41 -27 70 -36 3 -1 20 -10
38 -19 17 -10 32 -15 32 -12 0 4 7 -1 16 -9 8 -9 20 -14 25 -11 5 4 9 1 9 -6
0 -7 3 -10 6 -6 4 3 13 -1 21 -9 8 -8 19 -12 24 -9 5 4 9 2 9 -2 0 -5 17 -15
38 -22 20 -8 45 -20 54 -28 9 -8 22 -12 27 -8 6 3 14 -1 17 -9 3 -9 10 -13 15
-10 5 3 9 0 9 -7 0 -7 3 -10 6 -6 3 3 26 -5 52 -19 25 -13 47 -22 49 -20 2 2
16 -7 30 -20 17 -16 24 -30 20 -44 -3 -11 -1 -20 3 -20 5 0 5 -13 0 -29 -4
-16 -5 -32 -2 -36 4 -4 0 -5 -8 -3 -8 2 -14 -3 -12 -10 1 -8 -3 -12 -10 -9 -7
2 -21 -3 -31 -11 -10 -9 -28 -17 -40 -19 -12 -2 -23 -8 -25 -13 -2 -6 -10 -10
-18 -10 -8 0 -14 -5 -14 -11 0 -5 -4 -7 -10 -4 -10 6 -72 -24 -78 -38 -2 -4
-8 -5 -13 -1 -5 3 -9 1 -9 -5 0 -6 -6 -8 -13 -5 -7 2 -22 -4 -33 -14 -11 -10
-27 -18 -37 -16 -9 1 -17 -4 -17 -12 0 -8 -6 -11 -15 -8 -8 4 -15 2 -15 -3 0
-6 -18 -15 -40 -22 -22 -6 -40 -16 -40 -21 0 -6 -3 -9 -7 -8 -5 1 -18 -3 -29
-10 -12 -6 -24 -8 -28 -5 -3 3 -6 2 -6 -4 0 -10 -36 -26 -52 -24 -5 1 -8 -4
-8 -9 0 -6 -9 -10 -20 -10 -11 0 -20 -4 -20 -10 0 -5 -3 -9 -7 -8 -5 1 -18 -3
-29 -10 -12 -6 -24 -8 -28 -5 -3 3 -6 2 -6 -4 0 -9 -37 -28 -70 -37 -3 -1 -15
-7 -28 -14 -12 -7 -28 -10 -35 -6 -6 4 -9 3 -4 -1 7 -8 -76 -53 -100 -54 -7
-1 -13 -5 -13 -11 0 -6 -9 -6 -25 0 -14 5 -25 6 -25 1 0 -4 -7 -8 -15 -8 -8 0
-15 4 -15 9 0 4 -5 8 -11 8 -18 0 -39 27 -41 54 -1 14 -5 26 -9 26 -3 0 -6 7
-6 15 0 8 3 15 7 15 9 0 6 82 -3 98 -5 6 -5 12 0 12 7 0 9 60 3 85 -1 6 -1 15
0 20 8 38 8 45 -1 50 -5 4 -7 11 -3 16 9 15 13 89 5 89 -4 0 -8 7 -8 15 0 8 3
15 6 15 4 0 7 20 7 45 0 25 -4 45 -9 45 -4 0 -5 6 0 13 11 17 11 60 0 75 -5 6
-6 12 -1 12 8 0 11 59 4 85 -1 6 -1 15 0 20 8 30 6 75 -2 75 -5 0 -6 6 -2 12
12 19 12 48 1 48 -5 0 -4 7 3 15 6 8 9 19 5 25 -3 5 -1 10 5 10 6 0 8 5 5 10
-3 6 1 10 10 10 9 0 14 4 11 9 -4 5 -1 11 6 13 17 6 128 4 122 -1z"/>
</g>
</svg>
